# xmcd CD database file
#
# Track frame offsets:
#	150
#	15827
#	34577
#	52437
#	67687
#	105305
#	122567
#	140702
#	148952
#	166710
#	186277
#
# Disc length: 2540 seconds
#
# Revision: 1
# Processed by: cddbd v1.5.1PL0 Copyright (c) Steve Scherf et al.
# Submitted via: CDex 1.51
#
DISCID=9209ea0b
DTITLE=Catastrophe Ballet - New Values
DYEAR=1996
DGENRE=New Age
TTITLE0=Eyelid Backspace Poem
TTITLE1=Dim the light
TTITLE2=Moral Values
TTITLE3=Re-inforce your mind
TTITLE4=Hidden pain
TTITLE5=Believe
TTITLE6=I didn´t mean it
TTITLE7=Lésprit déscalier
TTITLE8=Krank
TTITLE9=Beast
TTITLE10=Goodbye cruel world
EXTD=YEAR: 1996
EXTT0=
EXTT1=
EXTT2=
EXTT3=
EXTT4=
EXTT5=
EXTT6=
EXTT7=
EXTT8=
EXTT9=
EXTT10=
PLAYORDER=
